<svg data-v-0dd9719b="" version="1.0" xmlns="http://www.w3.org/2000/svg" xmlns:xlink="http://www.w3.org/1999/xlink" width="100%" height="100%" viewBox="0 0 340.000000 250.000000" preserveAspectRatio="xMidYMid meet" color-interpolation-filters="sRGB" style="margin: auto;"> <rect data-v-0dd9719b="" x="0" y="0" width="100%" height="100%" fill="#feffff" fill-opacity="1" class="background"></rect> <rect data-v-0dd9719b="" x="0" y="0" width="100%" height="100%" fill="url(#watermark)" fill-opacity="1" class="watermarklayer"></rect> <g data-v-0dd9719b="" fill="#333" class="iconlettersvg-g iconlettersvg" transform="translate(122.02407836914062,91.18087570774878)"><g mask="url(#9bf13dbd-efa4-4834-9c9f-9fac3c7da31a)"><g class="tp-name" transform="translate(0,0)"><g transform="scale(1)"><g transform="translate(0, 0)"><g class="name-imagesvg"><g><rect fill="#333" fill-opacity="0" stroke-width="2" x="0" y="0" width="50" height="50" class="image-rect"></rect> <svg x="0" y="0" width="50" height="50" filtersec="colorsb7661894263" class="image-svg-svg primary" style="overflow: visible;"><svg xmlns="http://www.w3.org/2000/svg" viewBox="0 0 278.16 278.16"><path d="M226 174.39H56.83a35.31 35.31 0 0 1 0-70.62H226a35.31 35.31 0 0 1 0 70.62z" fill="#c8e107" opacity=".8"></path><path d="M242.85 278.16a35.31 35.31 0 0 1-35.31-35.31V105.93a35.35 35.35 0 0 0-35.31-35.31h-66.3a35.35 35.35 0 0 0-35.31 35.31v136.92a35.31 35.31 0 0 1-70.62 0V105.93A106 106 0 0 1 105.93 0h66.3a106 106 0 0 1 105.93 105.93v136.92a35.31 35.31 0 0 1-35.31 35.31z" fill="#3ac2d3" opacity=".8"></path></svg></svg> <!----></g></g></g><g transform="translate(42, 0)"><g class="name-imagesvg"><g><rect fill="#333" fill-opacity="0" stroke-width="2" x="0" y="0" width="12.694133199747618" height="50" class="image-rect"></rect> <svg x="0" y="0" width="12.694133199747618" height="50" filtersec="colorsb4100916258" class="image-svg-svg primary" style="overflow: visible;"><svg xmlns="http://www.w3.org/2000/svg" viewBox="0 0 70.62 278.16"><path d="M35.31 278.16A35.31 35.31 0 0 1 0 242.85V35.31a35.31 35.31 0 0 1 70.62 0v207.54a35.31 35.31 0 0 1-35.31 35.31z" fill="#ea79a8" opacity=".8"></path></svg></svg> <!----></g></g></g><g transform="translate(46.69413319974762, 0)"><g class="name-imagesvg"><g><rect fill="#333" fill-opacity="0" stroke-width="2" x="0" y="0" width="49.25584412179063" height="50" class="image-rect"></rect> <svg x="0" y="0" width="49.25584412179063" height="50" filtersec="colorsb6178542888" class="image-svg-svg primary" style="overflow: visible;"><svg xmlns="http://www.w3.org/2000/svg" viewBox="0 0 274 278.16"><path d="M192.16 278.16h-86.23A106 106 0 0 1 0 172.23a35.31 35.31 0 0 1 70.62 0 35.35 35.35 0 0 0 35.31 35.31h86.23a35.2 35.2 0 0 0 23.25-8.74A35.31 35.31 0 0 1 262 251.91a105.88 105.88 0 0 1-69.84 26.25z" fill="#f8dc1b" opacity=".8"></path><path d="M35.31 207.54A35.31 35.31 0 0 1 0 172.23v-66.3A106 106 0 0 1 105.93 0h86.23a105.16 105.16 0 0 1 62.39 20.32 35.31 35.31 0 1 1-41.63 57.05 34.91 34.91 0 0 0-20.76-6.75h-86.23a35.35 35.35 0 0 0-35.31 35.31v66.3a35.31 35.31 0 0 1-35.31 35.31z" fill="#ea79a8" opacity=".8"></path></svg></svg> <!----></g></g></g></g></g><rect v-gra="id" width="107.95184326171875" height="62.00005340576172" transform="translate(-6, -6)" style="pointer-events:none;" fill="url(#2028e5fb-4f8f-46e3-817d-2c3a490b4589)"></rect></g> <g data-gra="path-slogan" fill-rule="" class="tp-slogan" fill="#333" transform="translate(6.751850128173828,56.00005340576172)"><!----> <!----> <g transform="scale(1, 1)"><g transform="scale(1.3000000000000003)"><path d="M7.17-6.09L7.17-6.09L6.09-6.09Q6-7.73 3.94-7.83L3.94-7.83Q2.02-7.78 2.02-6.33L2.02-6.33Q2.02-5.39 3.05-5.25L3.05-5.25L5.48-4.69Q7.41-4.22 7.41-2.34L7.41-2.34Q7.36 0.05 4.03 0.14L4.03 0.14Q2.20 0.14 1.45-0.61L1.45-0.61Q0.52-1.31 0.56-2.77L0.56-2.77L1.69-2.77Q1.73-0.80 4.03-0.75L4.03-0.75Q6.28-0.80 6.33-2.20L6.33-2.20Q6.52-3.38 4.45-3.75L4.45-3.75L2.67-4.13Q0.84-4.64 0.84-6.19L0.84-6.19Q0.98-8.72 3.84-8.81L3.84-8.81Q7.08-8.81 7.17-6.09ZM11.86-8.58L13.03-8.58L13.03-1.03L17.39-1.03L17.39 0L11.86 0L11.86-8.58ZM28.31-4.27L28.31-4.27Q28.13-7.64 25.31-7.83L25.31-7.83Q22.45-7.69 22.31-4.27L22.31-4.27Q22.45-0.94 25.31-0.80L25.31-0.80Q28.13-0.98 28.31-4.27ZM29.48-4.27L29.48-4.27Q29.20 0 25.31 0.14L25.31 0.14Q21.38 0 21.09-4.27L21.09-4.27Q21.33-8.72 25.31-8.81L25.31-8.81Q29.20-8.67 29.48-4.27ZM40.27-3.61L37.64-3.61L37.64-4.59L41.39-4.59L41.39 0L40.64 0L40.36-1.08Q39.38 0.09 37.55 0.14L37.55 0.14Q35.81 0.14 34.88-0.75L34.88-0.75Q33.47-2.06 33.52-4.36L33.52-4.36Q33.84-8.63 37.59-8.81L37.59-8.81Q40.78-8.63 41.25-6L41.25-6L40.13-6Q39.66-7.78 37.55-7.83L37.55-7.83Q34.88-7.64 34.73-4.31L34.73-4.31Q34.73-0.75 37.59-0.75L37.59-0.75Q38.63-0.75 39.38-1.31L39.38-1.31Q40.31-2.06 40.27-3.61L40.27-3.61ZM51.84 0L51-2.48L47.53-2.48L46.64 0L45.47 0L48.70-8.58L50.02-8.58L53.11 0L51.84 0ZM49.27-7.31L47.91-3.52L50.58-3.52L49.31-7.31L49.27-7.31ZM58.55-8.58L62.86-1.64L62.86-8.58L63.98-8.58L63.98 0L62.67 0L58.31-6.94L58.27-6.94L58.27 0L57.14 0L57.14-8.58L58.55-8.58Z" transform="translate(-0.5602678571428572, 8.8125)"></path></g></g></g></g><defs v-gra="od"><filter id="f6391a6d-6871-4932-a1f5-76849f271fe1" filterUnits="userSpaceOnUse"><feColorMatrix type="matrix" values="0 0 0 0 0.99609375  0 0 0 0 0.99609375  0 0 0 0 0.99609375  0 0 0 1 0"></feColorMatrix></filter><linearGradient x1="0" y1="1" x2="0" y2="0" id="2028e5fb-4f8f-46e3-817d-2c3a490b4589"><stop offset="0%" stop-color="#fa8bff"></stop><stop offset="50%" stop-color="#2bd2ff"></stop><stop offset="100%" stop-color="#2bff88"></stop></linearGradient><filter id="42443b3f1de60f6b6fd3b6a9844b4764" filterUnits="objectBoundingBox"><feColorMatrix type="matrix" values="0 0 0 0 0.99609375  0 0 0 0 0.99609375  0 0 0 0 0.99609375  0 0 0 1 0"></feColorMatrix></filter></defs><mask v-gra="im" id="9bf13dbd-efa4-4834-9c9f-9fac3c7da31a"><g filter="url(#f6391a6d-6871-4932-a1f5-76849f271fe1)"><g class="tp-name" transform="translate(0,0)"><g transform="scale(1)"><g transform="translate(0, 0)"><g class="name-imagesvg"><g><rect fill="#333" fill-opacity="0" stroke-width="2" x="0" y="0" width="50" height="50" class="image-rect"></rect> <svg x="0" y="0" width="50" height="50" filtersec="colorsb7661894263" class="image-svg-svg primary" style="overflow: visible;"><svg xmlns="http://www.w3.org/2000/svg" viewBox="0 0 278.16 278.16"><path d="M226 174.39H56.83a35.31 35.31 0 0 1 0-70.62H226a35.31 35.31 0 0 1 0 70.62z" fill="#c8e107" opacity=".8"></path><path d="M242.85 278.16a35.31 35.31 0 0 1-35.31-35.31V105.93a35.35 35.35 0 0 0-35.31-35.31h-66.3a35.35 35.35 0 0 0-35.31 35.31v136.92a35.31 35.31 0 0 1-70.62 0V105.93A106 106 0 0 1 105.93 0h66.3a106 106 0 0 1 105.93 105.93v136.92a35.31 35.31 0 0 1-35.31 35.31z" fill="#3ac2d3" opacity=".8"></path></svg></svg> <!----></g></g></g><g transform="translate(42, 0)"><g class="name-imagesvg"><g><rect fill="#333" fill-opacity="0" stroke-width="2" x="0" y="0" width="12.694133199747618" height="50" class="image-rect"></rect> <svg x="0" y="0" width="12.694133199747618" height="50" filtersec="colorsb4100916258" class="image-svg-svg primary" style="overflow: visible;"><svg xmlns="http://www.w3.org/2000/svg" viewBox="0 0 70.62 278.16"><path d="M35.31 278.16A35.31 35.31 0 0 1 0 242.85V35.31a35.31 35.31 0 0 1 70.62 0v207.54a35.31 35.31 0 0 1-35.31 35.31z" fill="#ea79a8" opacity=".8"></path></svg></svg> <!----></g></g></g><g transform="translate(46.69413319974762, 0)"><g class="name-imagesvg"><g><rect fill="#333" fill-opacity="0" stroke-width="2" x="0" y="0" width="49.25584412179063" height="50" class="image-rect"></rect> <svg x="0" y="0" width="49.25584412179063" height="50" filtersec="colorsb6178542888" class="image-svg-svg primary" style="overflow: visible;"><svg xmlns="http://www.w3.org/2000/svg" viewBox="0 0 274 278.16"><path d="M192.16 278.16h-86.23A106 106 0 0 1 0 172.23a35.31 35.31 0 0 1 70.62 0 35.35 35.35 0 0 0 35.31 35.31h86.23a35.2 35.2 0 0 0 23.25-8.74A35.31 35.31 0 0 1 262 251.91a105.88 105.88 0 0 1-69.84 26.25z" fill="#f8dc1b" opacity=".8"></path><path d="M35.31 207.54A35.31 35.31 0 0 1 0 172.23v-66.3A106 106 0 0 1 105.93 0h86.23a105.16 105.16 0 0 1 62.39 20.32 35.31 35.31 0 1 1-41.63 57.05 34.91 34.91 0 0 0-20.76-6.75h-86.23a35.35 35.35 0 0 0-35.31 35.31v66.3a35.31 35.31 0 0 1-35.31 35.31z" fill="#ea79a8" opacity=".8"></path></svg></svg> <!----></g></g></g></g></g></g></mask></svg>